<?xml version="1.0" encoding="UTF-8"?>
<svg width="27px" height="25px" viewBox="0 0 27 25" version="1.1" xmlns="http://www.w3.org/2000/svg" xmlns:xlink="http://www.w3.org/1999/xlink">
    <!-- Generator: Sketch 51 (57462) - http://www.bohemiancoding.com/sketch -->
    <title>Call</title>
    <desc>Created with Sketch.</desc>
    <defs></defs>
    <g id="Page-1" stroke="none" stroke-width="1" fill="none" fill-rule="evenodd">
        <g id="Mockup" transform="translate(-113.000000, -4198.000000)" fill="#0F7AC4" fill-rule="nonzero">
            <path d="M136.599795,4214.10105 C135.82357,4213.38233 134.574859,4213.38233 133.798634,4214.10105 L132.398053,4215.39789 C131.621828,4216.11661 130.373117,4216.11661 129.596892,4215.39789 L121.193408,4207.61688 C120.417183,4206.89816 120.417183,4205.74194 121.193408,4205.02322 L122.593989,4203.72638 C123.370214,4203.00765 123.370214,4201.85144 122.593989,4201.13271 L119.792827,4198.53905 C119.016602,4197.82032 117.767892,4197.82032 116.991666,4198.53905 L113.481777,4201.78894 C113.093665,4202.14831 112.891171,4202.83578 113.059916,4203.32014 C114.51112,4207.57001 117.616021,4212.10112 121.193408,4215.41351 C124.770795,4218.72591 129.66439,4221.60082 134.254244,4222.94452 C134.777353,4223.10077 135.519829,4222.91327 135.907942,4222.55391 L139.417831,4219.30401 C140.194056,4218.58529 140.194056,4217.42907 139.417831,4216.71034 L136.599795,4214.10105 Z" id="Call"></path>
        </g>
    </g>
</svg>