<?xml version="1.0" encoding="UTF-8"?>
<svg width="31px" height="31px" viewBox="0 0 31 31" version="1.1" xmlns="http://www.w3.org/2000/svg" xmlns:xlink="http://www.w3.org/1999/xlink">
    <!-- Generator: Sketch 51 (57462) - http://www.bohemiancoding.com/sketch -->
    <title>Business_Man</title>
    <desc>Created with Sketch.</desc>
    <defs></defs>
    <g id="Page-1" stroke="none" stroke-width="1" fill="none" fill-rule="evenodd">
        <g id="Mockup" transform="translate(-113.000000, -4321.000000)" fill="#0F7AC4" fill-rule="nonzero">
            <path d="M136.327469,4338.55631 C136.017593,4338.44449 135.720112,4338.32024 135.422631,4338.20842 C135.608557,4337.95992 135.596162,4337.62445 135.385446,4337.4008 L132.794882,4334.80401 C132.683327,4334.69218 132.522191,4334.61764 132.361056,4334.61764 C132.286685,4334.61764 132.22471,4334.63006 132.162735,4334.65491 C132.10076,4334.51824 132.05118,4334.38156 132.001599,4334.26974 C134.183127,4333.01483 135.571371,4330.65411 135.571371,4328.10701 C135.571371,4324.19319 132.385846,4321 128.481407,4321 C124.576969,4321 121.391443,4324.19319 121.391443,4328.10701 C121.391443,4330.65411 122.779688,4333.0024 124.961216,4334.25731 C124.911635,4334.38156 124.84966,4334.51824 124.80008,4334.65491 C124.589364,4334.59279 124.329068,4334.63006 124.167933,4334.79158 L121.577369,4337.38838 C121.354258,4337.61202 121.341863,4337.95992 121.540184,4338.19599 C121.242703,4338.30782 120.945222,4338.43206 120.635346,4338.54389 C117.226709,4339.82365 113,4341.41403 113,4346.59519 L113,4347.00521 C113,4348.39679 114.127949,4349.56473 115.454218,4349.56473 L125.754498,4349.56473 L128.159136,4351.82605 C128.283087,4351.93788 128.431827,4352 128.580568,4352 C128.741703,4352 128.902839,4351.93788 129.026789,4351.81363 L131.233107,4349.56473 L141.843263,4349.56473 C143.095162,4349.56473 144,4348.48377 144,4347.00521 L144,4346.59519 C143.962815,4341.42645 139.723711,4339.83607 136.327469,4338.55631 Z M132.348661,4336.10862 L134.059176,4337.82325 L131.059576,4340.83006 L129.34906,4339.11543 L132.348661,4336.10862 Z M122.643343,4328.47976 C124.366253,4328.26854 125.791683,4327.21242 126.572571,4326.18116 C127.70052,4327.57275 130.377849,4328.54188 133.57577,4328.54188 C133.848461,4328.54188 134.083966,4328.52946 134.282287,4328.50461 C134.145942,4330.60441 132.869252,4332.50541 130.948021,4333.41242 C130.687725,4333.53667 130.538984,4333.82244 130.60096,4334.09579 C130.613355,4334.17034 130.861255,4334.87856 131.183527,4335.52465 L128.469012,4338.24569 L125.742103,4335.51222 C126.064374,4334.84128 126.312275,4334.12064 126.312275,4334.12064 C126.386645,4333.83487 126.2503,4333.52425 125.977609,4333.4 C124.056377,4332.49299 122.792083,4330.59198 122.643343,4328.47976 Z M124.589364,4336.10862 L127.588964,4339.11543 L125.878449,4340.83006 L122.878848,4337.82325 L124.589364,4336.10862 Z M128.543383,4350.52144 L126.485806,4348.58317 C126.535386,4344.85571 127.613754,4343.41443 127.62615,4343.402 C127.77489,4343.21563 127.812075,4342.95471 127.70052,4342.74349 C127.62615,4342.59439 127.502199,4342.51984 127.353459,4342.47014 C127.266693,4342.25892 127.179928,4342.14709 127.155138,4341.31463 L128.469012,4339.9976 L129.758097,4341.28978 C129.720912,4341.6998 129.646541,4342.30862 129.572171,4342.47014 C129.423431,4342.51984 129.29948,4342.61924 129.22511,4342.75591 C129.12595,4342.96713 129.15074,4343.21563 129.287085,4343.402 C129.29948,4343.41443 130.377849,4344.85571 130.427429,4348.59559 L128.543383,4350.52144 Z" id="Business_Man"></path>
        </g>
    </g>
</svg>