<?xml version="1.0" encoding="UTF-8"?>
<svg width="64px" height="56px" viewBox="0 0 64 56" version="1.1" xmlns="http://www.w3.org/2000/svg" xmlns:xlink="http://www.w3.org/1999/xlink">
    <!-- Generator: Sketch 51 (57462) - http://www.bohemiancoding.com/sketch -->
    <title>Building_2</title>
    <desc>Created with Sketch.</desc>
    <defs></defs>
    <g id="Page-1" stroke="none" stroke-width="1" fill="none" fill-rule="evenodd">
        <g id="Mockup" transform="translate(-839.000000, -2000.000000)" fill="#fff" fill-rule="nonzero">
            <path d="M901.449655,2000 L840.274483,2000 C839.560772,2000 839,2000.56 839,2001.27273 L839,2004.53091 C839,2006.26182 840.401931,2007.63636 842.186207,2007.63636 L899.537931,2007.63636 C901.322207,2007.63636 902.724138,2006.26182 902.724138,2004.53091 L902.724138,2001.27273 C902.724138,2000.56 902.163366,2000 901.449655,2000 Z M899.537931,2010.18182 L842.186207,2010.18182 C841.9568,2010.18182 841.752883,2010.13091 841.548966,2010.13091 L841.548966,2052.81818 C841.548966,2054.57455 842.976386,2056 844.735172,2056 L896.988966,2056 C898.747752,2056 900.175172,2054.57455 900.175172,2052.81818 L900.175172,2010.13091 C899.971255,2010.13091 899.767338,2010.18182 899.537931,2010.18182 Z M864.489655,2016.54545 C864.489655,2015.83273 865.050428,2015.27273 865.764138,2015.27273 L875.96,2015.27273 C876.67371,2015.27273 877.234483,2015.83273 877.234483,2016.54545 L877.234483,2024.18182 C877.234483,2024.89455 876.67371,2025.45455 875.96,2025.45455 L865.764138,2025.45455 C865.050428,2025.45455 864.489655,2024.89455 864.489655,2024.18182 L864.489655,2016.54545 Z M846.646897,2024.18182 L846.646897,2016.54545 C846.646897,2015.83273 847.207669,2015.27273 847.921379,2015.27273 L858.117241,2015.27273 C858.830952,2015.27273 859.391724,2015.83273 859.391724,2016.54545 L859.391724,2024.18182 C859.391724,2024.89455 858.830952,2025.45455 858.117241,2025.45455 L847.921379,2025.45455 C847.207669,2025.45455 846.646897,2024.89455 846.646897,2024.18182 Z M869.587586,2053.45455 L859.391724,2053.45455 L859.391724,2043.27273 L869.587586,2043.27273 L869.587586,2053.45455 Z M882.332414,2053.45455 L872.136552,2053.45455 L872.136552,2043.27273 L882.332414,2043.27273 L882.332414,2053.45455 Z M886.155862,2040.72727 L855.568276,2040.72727 C854.854566,2040.72727 854.293793,2040.16727 854.293793,2039.45455 C854.293793,2034.54182 857.607448,2030.54545 861.685793,2030.54545 L880.038345,2030.54545 C884.11669,2030.54545 887.430345,2034.54182 887.430345,2039.45455 C887.430345,2040.16727 886.869572,2040.72727 886.155862,2040.72727 Z M895.077241,2024.18182 C895.077241,2024.89455 894.516469,2025.45455 893.802759,2025.45455 L883.606897,2025.45455 C882.893186,2025.45455 882.332414,2024.89455 882.332414,2024.18182 L882.332414,2016.54545 C882.332414,2015.83273 882.893186,2015.27273 883.606897,2015.27273 L893.802759,2015.27273 C894.516469,2015.27273 895.077241,2015.83273 895.077241,2016.54545 L895.077241,2024.18182 Z" id="Building_2"></path>
        </g>
    </g>
</svg>