<?xml version="1.0" encoding="UTF-8"?>
<svg width="58px" height="56px" viewBox="0 0 58 56" version="1.1" xmlns="http://www.w3.org/2000/svg" xmlns:xlink="http://www.w3.org/1999/xlink">
    <!-- Generator: Sketch 51 (57462) - http://www.bohemiancoding.com/sketch -->
    <title>Modern_House</title>
    <desc>Created with Sketch.</desc>
    <defs></defs>
    <g id="Page-1" stroke="none" stroke-width="1" fill="none" fill-rule="evenodd">
        <g id="Mockup" transform="translate(-540.000000, -2000.000000)" fill="#fff" fill-rule="nonzero">
            <path d="M540,2025.75813 L541.031782,2027.85988 L544.03333,2026.3653 L544.03333,2054.78565 C544.03333,2055.43953 544.549221,2055.95329 545.20581,2055.95329 L546.35484,2055.95329 L546.35484,2056 L565.114514,2056 L565.114514,2013.33445 L540,2025.75813 Z M560.424596,2053.66472 L551.044758,2053.66472 L551.044758,2043.10926 C551.044758,2042.45538 551.560649,2041.94162 552.217238,2041.94162 L559.252116,2041.94162 C559.908705,2041.94162 560.424596,2042.45538 560.424596,2043.10926 L560.424596,2053.66472 Z M555.734677,2034.98249 C553.155222,2034.98249 551.044758,2032.88073 551.044758,2030.31193 C551.044758,2027.74312 553.155222,2025.64137 555.734677,2025.64137 C558.314132,2025.64137 560.424596,2027.74312 560.424596,2030.31193 C560.424596,2032.88073 558.314132,2034.98249 555.734677,2034.98249 Z M588.564108,2013.87156 L588.564108,2001.16764 C588.564108,2000.51376 588.048217,2000 587.391628,2000 L580.35675,2000 C579.700161,2000 579.18427,2000.51376 579.18427,2001.16764 L579.18427,2008.12677 L569.804433,2002.35863 L569.804433,2002.33528 L569.757534,2002.33528 L565.982149,2000.02335 L564.76277,2002.00834 L567.459474,2003.66639 L567.459474,2055.95329 L592.081547,2055.95329 C592.738135,2055.95329 593.254026,2055.43953 593.254026,2054.78565 L593.254026,2019.49958 L596.067977,2021.22769 L597.287356,2019.2427 L588.564108,2013.87156 Z M583.874189,2045.70142 C583.874189,2046.33194 583.358298,2046.86906 582.701709,2046.86906 L575.666831,2046.86906 C575.010243,2046.86906 574.494352,2046.33194 574.494352,2045.70142 L574.494352,2036.24354 C574.494352,2035.58966 575.010243,2035.0759 575.666831,2035.0759 L582.701709,2035.0759 C583.358298,2035.0759 583.874189,2035.58966 583.874189,2036.24354 L583.874189,2045.70142 Z M583.874189,2029.19099 C583.874189,2029.84487 583.358298,2030.35863 582.701709,2030.35863 L575.666831,2030.35863 C575.010243,2030.35863 574.494352,2029.84487 574.494352,2029.19099 L574.494352,2018.3553 C574.494352,2017.93495 574.705398,2017.5613 575.057142,2017.35113 C575.432335,2017.14095 575.854428,2017.1176 576.229622,2017.32777 L583.2645,2021.11093 C583.639693,2021.3211 583.874189,2021.7181 583.874189,2022.13845 L583.874189,2029.19099 Z" id="Modern_House"></path>
        </g>
    </g>
</svg>