<?xml version="1.0" encoding="UTF-8"?>
<svg width="20px" height="20px" viewBox="0 0 20 20" version="1.1" xmlns="http://www.w3.org/2000/svg" xmlns:xlink="http://www.w3.org/1999/xlink">
    <!-- Generator: Sketch 51 (57462) - http://www.bohemiancoding.com/sketch -->
    <title>Instagram_2</title>
    <desc>Created with Sketch.</desc>
    <defs></defs>
    <g id="Page-1" stroke="none" stroke-width="1" fill="none" fill-rule="evenodd">
        <g id="Mockup" transform="translate(-705.000000, -4601.000000)" fill="#0F7AC4" fill-rule="nonzero">
            <path d="M720,4601 L710,4601 C707.24,4601 705,4603.24 705,4606 L705,4616 C705,4618.76 707.24,4621 710,4621 L720,4621 C722.76,4621 725,4618.76 725,4616 L725,4606 C725,4603.24 722.76,4601 720,4601 Z M723,4616 C723,4617.66 721.66,4619 720,4619 L710,4619 C708.34,4619 707,4617.66 707,4616 L707,4606 C707,4604.34 708.34,4603 710,4603 L720,4603 C721.66,4603 723,4604.34 723,4606 L723,4616 Z M721.8,4605.5 C721.8,4606.22 721.22,4606.8 720.5,4606.8 C719.78,4606.8 719.2,4606.22 719.2,4605.5 C719.2,4604.78 719.78,4604.2 720.5,4604.2 C721.22,4604.2 721.8,4604.78 721.8,4605.5 Z M715,4606 C712.24,4606 710,4608.24 710,4611 C710,4613.76 712.24,4616 715,4616 C717.76,4616 720,4613.76 720,4611 C720,4608.24 717.76,4606 715,4606 Z M715,4614 C713.35,4614 712,4612.65 712,4611 C712,4609.35 713.35,4608 715,4608 C716.65,4608 718,4609.35 718,4611 C718,4612.65 716.65,4614 715,4614 Z" id="Instagram_2"></path>
        </g>
    </g>
</svg>