<?xml version="1.0" encoding="UTF-8"?>
<svg width="30px" height="26px" viewBox="0 0 30 26" version="1.1" xmlns="http://www.w3.org/2000/svg" xmlns:xlink="http://www.w3.org/1999/xlink">
    <!-- Generator: Sketch 51 (57462) - http://www.bohemiancoding.com/sketch -->
    <title>Mail</title>
    <desc>Created with Sketch.</desc>
    <defs></defs>
    <g id="Page-1" stroke="none" stroke-width="1" fill="none" fill-rule="evenodd">
        <g id="Mockup" transform="translate(-113.000000, -4259.000000)" fill="#0F7AC4">
            <path d="M127.297314,4279.16857 L122.500312,4274.73 C122.125547,4274.37714 121.507183,4274.37714 121.132417,4274.73 L113,4282.25143 L113,4283.27286 C113,4284.22 113.843223,4285 114.873829,4285 L141.107433,4285 C142.138039,4285 142.981262,4284.22 142.981262,4283.27286 L142.981262,4282.25143 L134.848844,4274.73 C134.474079,4274.37714 133.855715,4274.37714 133.480949,4274.73 L128.683948,4279.16857 C128.290443,4279.52143 127.690818,4279.52143 127.297314,4279.16857 Z M137.509681,4272.27857 L142.306683,4276.71714 C142.681449,4277.07 143,4276.94 143,4276.42 L143,4266.87429 C143,4266.35429 142.700187,4266.22429 142.306683,4266.57714 L137.509681,4271.01571 C137.116177,4271.35 137.116177,4271.92571 137.509681,4272.27857 Z M114.873829,4259 C113.843223,4259 113,4259.78 113,4260.72714 L113,4261.04286 L127.241099,4274.26571 C127.615865,4274.61857 128.234229,4274.61857 128.608994,4274.26571 L143,4260.89429 L143,4260.74571 C143,4259.79857 142.156777,4259.01857 141.126171,4259.01857 L114.873829,4259.01857 L114.873829,4259 Z M113,4266.85571 L113,4276.40143 C113,4276.92143 113.299813,4277.05143 113.693317,4276.69857 L118.490319,4272.26 C118.865084,4271.90714 118.865084,4271.35 118.490319,4270.99714 L113.693317,4266.55857 C113.299813,4266.22429 113,4266.35429 113,4266.85571 Z" id="Mail"></path>
        </g>
    </g>
</svg>