<?xml version="1.0" encoding="UTF-8"?>
<svg width="56px" height="56px" viewBox="0 0 56 56" version="1.1" xmlns="http://www.w3.org/2000/svg" xmlns:xlink="http://www.w3.org/1999/xlink">
    <!-- Generator: Sketch 51 (57462) - http://www.bohemiancoding.com/sketch -->
    <title>Factory</title>
    <desc>Created with Sketch.</desc>
    <defs></defs>
    <g id="Page-1" stroke="none" stroke-width="1" fill="none" fill-rule="evenodd">
        <g id="Mockup" transform="translate(-1146.000000, -2000.000000)" fill="#0F7AC4" fill-rule="nonzero">
            <path d="M1201.3728,2020.3168 C1201.0144,2020.1376 1200.544,2020.16 1200.208,2020.4288 L1188.56,2029.1648 L1188.56,2021.3248 C1188.56,2020.8992 1188.3136,2020.496 1187.9328,2020.3168 C1187.5744,2020.1376 1187.104,2020.16 1186.768,2020.4288 L1175.12,2029.1648 L1175.12,2021.3248 C1175.12,2020.8992 1174.8736,2020.5184 1174.5152,2020.3168 C1174.1344,2020.1152 1173.6864,2020.16 1173.3504,2020.4064 L1161.1424,2029.2544 L1161.68,2033.3088 L1161.68,2054.88 C1161.68,2055.2832 1161.5904,2055.6416 1161.4784,2056 L1199.2,2056 C1200.7456,2056 1202,2054.7456 1202,2053.2 L1202,2021.3248 C1202,2020.8992 1201.7536,2020.496 1201.3728,2020.3168 Z M1172.88,2045.92 C1172.88,2046.5472 1172.3872,2047.04 1171.76,2047.04 L1167.28,2047.04 C1166.6528,2047.04 1166.16,2046.5472 1166.16,2045.92 L1166.16,2039.2 C1166.16,2038.5728 1166.6528,2038.08 1167.28,2038.08 L1171.76,2038.08 C1172.3872,2038.08 1172.88,2038.5728 1172.88,2039.2 L1172.88,2045.92 Z M1184.08,2045.92 C1184.08,2046.5472 1183.5872,2047.04 1182.96,2047.04 L1178.48,2047.04 C1177.8528,2047.04 1177.36,2046.5472 1177.36,2045.92 L1177.36,2039.2 C1177.36,2038.5728 1177.8528,2038.08 1178.48,2038.08 L1182.96,2038.08 C1183.5872,2038.08 1184.08,2038.5728 1184.08,2039.2 L1184.08,2045.92 Z M1195.28,2045.92 C1195.28,2046.5472 1194.7872,2047.04 1194.16,2047.04 L1189.68,2047.04 C1189.0528,2047.04 1188.56,2046.5472 1188.56,2045.92 L1188.56,2039.2 C1188.56,2038.5728 1189.0528,2038.08 1189.68,2038.08 L1194.16,2038.08 C1194.7872,2038.08 1195.28,2038.5728 1195.28,2039.2 L1195.28,2045.92 Z M1172.7232,2002.24 C1171.7376,2002.24 1170.7744,2002.5536 1169.9904,2003.1136 C1168.3328,2002.0832 1166.1376,2001.9712 1164.368,2002.8224 C1163.0688,2001.0752 1160.9632,2000 1158.7008,2000 C1156.7072,2000 1154.848,2000.8288 1153.5264,2002.2624 C1150.5696,2002.5088 1148.24,2004.928 1148.24,2007.84 C1148.24,2008.4448 1148.352,2009.0496 1148.5536,2009.632 C1148.352,2010.1472 1148.24,2010.6624 1148.24,2011.2 C1148.24,2012.2976 1148.6656,2013.2832 1149.3376,2014.0672 C1148.8,2014.5152 1148.3968,2015.1424 1148.3072,2015.8816 L1146,2033.6 L1146,2054.88 C1146,2055.5072 1146.4928,2056 1147.12,2056 L1158.32,2056 C1158.9472,2056 1159.44,2055.5072 1159.44,2054.88 L1159.44,2033.4656 L1157.1328,2015.8816 C1157.0432,2015.232 1156.7296,2014.6496 1156.2816,2014.224 C1156.5504,2013.9328 1156.7968,2013.5968 1156.9984,2013.216 C1159.0816,2013.7536 1161.3216,2013.2608 1163.0016,2011.984 C1164.0544,2012.9024 1165.4432,2013.44 1166.8992,2013.44 C1168.7808,2013.44 1170.5504,2012.5216 1171.6256,2011.0656 C1171.984,2011.1552 1172.3648,2011.2 1172.7232,2011.2 C1175.2768,2011.2 1177.36,2009.184 1177.36,2006.72 C1177.36,2004.256 1175.2768,2002.24 1172.7232,2002.24 Z" id="Factory"></path>
        </g>
    </g>
</svg>