<?xml version="1.0" encoding="UTF-8"?>
<svg width="56px" height="56px" viewBox="0 0 56 56" version="1.1" xmlns="http://www.w3.org/2000/svg" xmlns:xlink="http://www.w3.org/1999/xlink">
    <!-- Generator: Sketch 51 (57462) - http://www.bohemiancoding.com/sketch -->
    <title>House</title>
    <desc>Created with Sketch.</desc>
    <defs></defs>
    <g id="Page-1" stroke="none" stroke-width="1" fill="none" fill-rule="evenodd">
        <g id="Mockup" transform="translate(-239.000000, -2000.000000)" fill="#0F7AC4" fill-rule="nonzero">
            <path d="M294.592801,2022.63991 L286.037241,2015.51138 L286.037241,2003.38833 C286.037241,2002.75266 285.544512,2002.25321 284.917403,2002.25321 L278.198377,2002.25321 C277.571268,2002.25321 277.078539,2002.75266 277.078539,2003.38833 L277.078539,2008.06501 L267.716696,2000.2554 C267.291158,1999.91487 266.708842,1999.91487 266.283304,2000.2554 L239.407199,2022.63991 C238.936868,2023.02585 238.869677,2023.72963 239.228025,2024.20638 L242.542745,2028.54252 C242.721919,2028.79225 242.99068,2028.95117 243.304235,2028.99657 C243.595392,2029.01927 243.908947,2028.92846 244.132914,2028.74685 L267,2009.74498 L289.867086,2028.74685 C290.068656,2028.90576 290.315021,2028.99657 290.583782,2028.99657 L290.695765,2028.99657 C291.00932,2028.95117 291.278081,2028.79225 291.457255,2028.54252 L294.771975,2024.20638 C295.130323,2023.72963 295.063132,2023.02585 294.592801,2022.63991 Z M267.5,2013 L246,2030.22216 L246,2053.22938 C246,2054.75876 247.312632,2056 248.919474,2056 L286.080526,2056 C287.687368,2056 289,2054.75876 289,2053.22938 L289,2030.22216 L267.5,2013 Z M266,2054 L255,2054 L255,2037.125 C255,2036.495 255.484,2036 256.1,2036 L264.9,2036 C265.516,2036 266,2036.495 266,2037.125 L266,2054 Z M282,2042.91667 C282,2043.52333 281.505,2044 280.875,2044 L274.125,2044 C273.495,2044 273,2043.52333 273,2042.91667 L273,2032.08333 C273,2031.47667 273.495,2031 274.125,2031 L280.875,2031 C281.505,2031 282,2031.47667 282,2032.08333 L282,2042.91667 Z" id="House"></path>
        </g>
    </g>
</svg>