<?xml version="1.0" encoding="UTF-8"?>
<svg width="22px" height="18px" viewBox="0 0 22 18" version="1.1" xmlns="http://www.w3.org/2000/svg" xmlns:xlink="http://www.w3.org/1999/xlink">
    <!-- Generator: Sketch 51 (57462) - http://www.bohemiancoding.com/sketch -->
    <title>Twitter</title>
    <desc>Created with Sketch.</desc>
    <defs></defs>
    <g id="Page-1" stroke="none" stroke-width="1" fill="none" fill-rule="evenodd">
        <g id="Mockup" transform="translate(-640.000000, -4602.000000)" fill="#0F7AC4" fill-rule="nonzero">
            <path d="M662,4604.13 C661.189632,4604.49 660.319236,4604.74 659.408822,4604.85 C660.339245,4604.29 661.059573,4603.4 661.399727,4602.34 C660.529332,4602.86 659.55889,4603.24 658.528422,4603.44 C657.708049,4602.56 656.527513,4602 655.236926,4602 C652.745794,4602 650.71487,4604.04 650.71487,4606.54 C650.71487,4606.9 650.754889,4607.24 650.834925,4607.58 C647.08322,4607.39 643.751705,4605.58 641.520691,4602.83 C641.130514,4603.5 640.910414,4604.28 640.910414,4605.11 C640.910414,4606.69 641.950887,4608.08 643.161437,4608.89 C642.421101,4608.87 641.360618,4608.66 641.360618,4608.32 L641.360618,4608.38 C641.360618,4610.58 642.671214,4612.42 644.742156,4612.84 C644.361983,4612.94 643.841746,4613 643.43156,4613 C643.141428,4613 642.801273,4612.97 642.521146,4612.92 C643.091405,4614.73 644.732151,4616.04 646.713051,4616.08 C645.172351,4617.3 643.201455,4618.02 641.090496,4618.02 C640.720327,4618.02 640.360164,4618 640,4617.96 C642.00091,4619.25 644.371987,4620 646.923147,4620 C655.236926,4620 659.768986,4613.08 659.768986,4607.07 C659.768986,4606.87 659.758981,4606.68 659.758981,4606.48 C660.629377,4605.84 661.399727,4605.04 662,4604.13 Z" id="Twitter"></path>
        </g>
    </g>
</svg>